<svg width="16" height="16" viewBox="0 0 16 16" fill="none" xmlns="http://www.w3.org/2000/svg">
<path fill-rule="evenodd" clip-rule="evenodd" d="M7.5918 2.72095C4.4845 2.72095 1.9668 5.23865 1.9668 8.34595C1.9668 10.8307 3.57813 12.9401 5.81384 13.6835C6.09582 13.7347 6.19836 13.5626 6.19836 13.4125C6.19836 13.2788 6.19287 12.9254 6.19104 12.4567C4.62549 12.7954 4.2959 11.7023 4.2959 11.7023C4.03955 11.0523 3.67151 10.8783 3.67151 10.8783C3.16065 10.5304 3.70996 10.5377 3.70996 10.5377C4.27393 10.578 4.57056 11.1163 4.57056 11.1163C5.07227 11.9769 5.88708 11.7279 6.20752 11.5851C6.25879 11.2207 6.40528 10.9735 6.56458 10.8325C5.3158 10.6915 4.00293 10.2081 4.00293 8.05299C4.00293 7.43775 4.22266 6.93605 4.58155 6.54237C4.52479 6.40138 4.33069 5.82825 4.63648 5.05372C4.63648 5.05372 5.10889 4.90357 6.18372 5.6305C6.63233 5.50599 7.1139 5.44373 7.59181 5.44191C8.06971 5.44374 8.55128 5.50599 8.99989 5.6305C10.0747 4.90357 10.5453 5.05372 10.5453 5.05372C10.8529 5.82825 10.6607 6.40138 10.6021 6.54237C10.9628 6.93604 11.1788 7.43775 11.1788 8.05299C11.1788 10.2136 9.86415 10.6879 8.61171 10.8289C8.81313 11.001 8.99257 11.3452 8.99257 11.8689C8.99257 12.6215 8.98707 13.2276 8.98707 13.4125C8.98707 13.5626 9.08778 13.7384 9.37343 13.6835C11.6073 12.9382 13.2168 10.8307 13.2168 8.34596C13.2168 5.23866 10.6991 2.72095 7.5918 2.72095Z" fill="white"/>
</svg>
