<svg width="16" height="16" viewBox="0 0 16 16" fill="none" xmlns="http://www.w3.org/2000/svg">
<path d="M5.46777 3.1897C3.80335 3.1897 2.43555 4.55566 2.43555 6.22192V10.47C2.43555 12.1344 3.80151 13.5022 5.46777 13.5022H9.71582C11.3802 13.5022 12.748 12.1362 12.748 10.47V6.22192C12.748 4.5575 11.3821 3.1897 9.71582 3.1897H5.46777ZM5.46777 4.1272H9.71582C10.8749 4.1272 11.8105 5.06286 11.8105 6.22192V10.47C11.8105 11.629 10.8749 12.5647 9.71582 12.5647H5.46777C4.30871 12.5647 3.37305 11.629 3.37305 10.47V6.22192C3.37305 5.06286 4.30871 4.1272 5.46777 4.1272ZM10.3604 5.15259C10.1241 5.15259 9.93555 5.34118 9.93555 5.57739C9.93555 5.8136 10.1241 6.0022 10.3604 6.0022C10.5966 6.0022 10.7852 5.8136 10.7852 5.57739C10.7852 5.34118 10.5966 5.15259 10.3604 5.15259ZM7.5918 5.53345C6.04456 5.53345 4.7793 6.79871 4.7793 8.34595C4.7793 9.89319 6.04456 11.1584 7.5918 11.1584C9.13904 11.1584 10.4043 9.89319 10.4043 8.34595C10.4043 6.79871 9.13904 5.53345 7.5918 5.53345ZM7.5918 6.47095C8.63367 6.47095 9.4668 7.30408 9.4668 8.34595C9.4668 9.38782 8.63367 10.2209 7.5918 10.2209C6.54992 10.2209 5.7168 9.38782 5.7168 8.34595C5.7168 7.30408 6.54992 6.47095 7.5918 6.47095Z" fill="white"/>
</svg>
