<svg width="14" height="14" viewBox="0 0 14 14" fill="none" xmlns="http://www.w3.org/2000/svg">
<g clip-path="url(#clip0_97_447)">
<path d="M6.58703 1.9292C3.59703 1.9292 1.17578 4.35587 1.17578 7.34587C1.17578 10.3359 3.59703 12.7625 6.58703 12.7625C9.58245 12.7625 12.0091 10.3359 12.0091 7.34587C12.0091 4.35587 9.58245 1.9292 6.58703 1.9292ZM10.3408 5.1792H8.74287C8.56953 4.50212 8.32037 3.85212 7.99537 3.25087C8.99203 3.59212 9.82078 4.28545 10.3408 5.1792ZM6.59245 3.0342C7.04203 3.6842 7.39412 4.40462 7.62703 5.1792H5.55787C5.79078 4.40462 6.14287 3.6842 6.59245 3.0342ZM2.39995 8.4292C2.31328 8.08253 2.25911 7.71962 2.25911 7.34587C2.25911 6.97212 2.31328 6.6092 2.39995 6.26253H4.23078C4.18745 6.62003 4.15495 6.97753 4.15495 7.34587C4.15495 7.7142 4.18745 8.0717 4.23078 8.4292H2.39995ZM2.84412 9.51253H4.44203C4.61537 10.1896 4.86453 10.8396 5.18953 11.4409C4.19287 11.0996 3.36411 10.4117 2.84412 9.51253ZM4.44203 5.1792H2.84412C3.36411 4.28003 4.19287 3.59212 5.18953 3.25087C4.86453 3.85212 4.61537 4.50212 4.44203 5.1792ZM6.59245 11.6575C6.14287 11.0075 5.79078 10.2871 5.55787 9.51253H7.62703C7.39412 10.2871 7.04203 11.0075 6.59245 11.6575ZM7.85995 8.4292H5.32495C5.2762 8.0717 5.23828 7.7142 5.23828 7.34587C5.23828 6.97753 5.2762 6.61462 5.32495 6.26253H7.85995C7.9087 6.61462 7.94662 6.97753 7.94662 7.34587C7.94662 7.7142 7.9087 8.0717 7.85995 8.4292ZM7.99537 11.4409C8.32037 10.8396 8.56953 10.1896 8.74287 9.51253H10.3408C9.82078 10.4063 8.99203 11.0996 7.99537 11.4409ZM8.95412 8.4292C8.99745 8.0717 9.02995 7.7142 9.02995 7.34587C9.02995 6.97753 8.99745 6.62003 8.95412 6.26253H10.785C10.8716 6.6092 10.9258 6.97212 10.9258 7.34587C10.9258 7.71962 10.8716 8.08253 10.785 8.4292H8.95412Z" fill="white"/>
</g>
<defs>
<clipPath id="clip0_97_447">
<rect width="13" height="13" fill="white" transform="translate(0.0917969 0.845947)"/>
</clipPath>
</defs>
</svg>
