<svg width="16" height="16" viewBox="0 0 16 16" fill="none" xmlns="http://www.w3.org/2000/svg">
<path d="M3.60742 3.1897C2.96655 3.1897 2.43555 3.7207 2.43555 4.36157V12.3303C2.43555 12.9712 2.96655 13.5022 3.60742 13.5022H11.5762C12.217 13.5022 12.748 12.9712 12.748 12.3303V4.36157C12.748 3.7207 12.217 3.1897 11.5762 3.1897H3.60742ZM3.60742 4.1272H11.5762C11.7098 4.1272 11.8105 4.2279 11.8105 4.36157V12.3303C11.8105 12.464 11.7098 12.5647 11.5762 12.5647H3.60742C3.47375 12.5647 3.37305 12.464 3.37305 12.3303V4.36157C3.37305 4.2279 3.47375 4.1272 3.60742 4.1272ZM4.98438 4.93286C4.53943 4.93286 4.17871 5.29358 4.17871 5.73853C4.17871 6.18347 4.53943 6.54419 4.98438 6.54419C5.42932 6.54419 5.79004 6.18347 5.79004 5.73853C5.79004 5.29358 5.42932 4.93286 4.98438 4.93286ZM9.21777 7.07153C8.54578 7.07153 8.099 7.43958 7.91406 7.78931H7.88477V7.17407H6.56641V11.6272H7.94336V9.42993C7.94336 8.84949 8.05871 8.28735 8.77832 8.28735C9.48694 8.28735 9.49609 8.94287 9.49609 9.45923V11.6272H10.873V9.18091C10.873 7.9834 10.6185 7.07153 9.21777 7.07153ZM4.31055 7.17407V11.6272H5.70215V7.17407H4.31055Z" fill="white"/>
</svg>
